<svg data-v-2cb57da0="" version="1.1" xmlns="http://www.w3.org/2000/svg" xmlns:xlink="http://www.w3.org/1999/xlink" width="100%" height="100%" viewBox="0 0 340.000000 250.000000" preserveAspectRatio="xMidYMid meet" color-interpolation-filters="sRGB" style="margin: auto" xmlnsXlink="http://www.w3.org/1999/xlink" xmlnsSvgjs="http://svgjs.com/svgjs">
    <g data-v-2cb57da0="" fill="#333" class="iconlinesvg-g iconlinesvg" transform="translate(80.21580505371094,108.03643417358398)">
        <g class="tp-name" opacity="1" transform="matrix(1,0,0,1,0,0)">
            <g transform="translate(0, 0)">
                <g>
                    <g class="imagesvg">
                        <g>
                            <rect fill="#333" fill-opacity="0" stroke-width="2" x="0" y="0" width="22.82617455805389" height="33.92713222065085" class="image-rect"></rect> 
                            <svg x="0" y="0" width="22.82617455805389" height="33.92713222065085" filtersec="colorsb429072212" class="image-svg-svg primary" style="overflow: visible">
                                <svg xmlns="http://www.w3.org/2000/svg" viewBox="0.020007014274597168 0 144.7113037109375 215.08702087402344">
                                    <path d="M76.92 76.71q31.29 31.46 62.71 62.77c.74.75 1.53 1.45 2.22 2.24.54.63 1.67 1.1 1.14 2.17s-1.57.68-2.43.68h-24.78q-21.61.07-43.24.2c-23.8-.34-47.6-.38-71.4 0-1.59-1.06-1-2.71-1-4.13 0-21.34.07-42.69-.12-64 0-3.79 1.3-4.43 4.67-4.41 20.45.13 40.91.09 61.36 0 1.77 0 4.09 1 4.93-1.81" fill="#50C6AF"></path>
                                    <path d="M71 70.47c-2.29-2.14-4.64-4.22-6.86-6.43Q34.46 34.47 4.88 4.86a35.25 35.25 0 0 1-2.25-2.74L3.37.38C4.67.27 6 .12 7.26.12 51.37.1 95.48.17 139.59 0c4.32 0 5.18 1.3 5.14 5.31-.19 20.92-.1 41.83-.08 62.75 0 2.33.34 4.37-3.28 4.34" fill="#7EDAC7"></path>
                                    <path d="M1.14 144.82c23.8-.41 47.6-.37 71.4 0v70c-2.15.8-2.67-.39-3.34-1.05q-33.08-33-66.1-66.06c-.8-.86-1.99-1.47-1.96-2.89z" fill="#2AAF94"></path>
                                    <path d="M2.79.42c0 .57-.1 1.13-.16 1.7-.85 0-1.37-.41-1.17-1.24C1.6.3 2.18.11 2.79.42z" fill="#bee8f7"></path>
                                </svg>
                            </svg> 
                        </g>
                    </g>
                </g>
            </g>
            <g transform="translate(26, 2.262692258656145)">
                <g data-gra="path-name" fill="#333" transform="scale(1)">
                    <path d="M7.18-19.12L7.18-2.46Q7.18-1.41 6.49-0.71Q5.81 0 4.76 0L4.76 0Q3.71 0 3.02-0.71Q2.34-1.41 2.34-2.46L2.34-2.46L2.34-19.12Q2.34-20.17 3.02-20.87Q3.71-21.58 4.76-21.58L4.76-21.58Q5.81-21.58 6.49-20.87Q7.18-20.17 7.18-19.12L7.18-19.12ZM4.72-24.20L4.72-24.20Q3.35-24.20 2.78-24.64Q2.22-25.09 2.22-26.22L2.22-26.22L2.22-26.98Q2.22-28.15 2.84-28.57Q3.47-29.00 4.76-29.00L4.76-29.00Q6.17-29.00 6.74-28.55Q7.30-28.11 7.30-26.98L7.30-26.98L7.30-26.22Q7.30-25.05 6.70-24.62Q6.09-24.20 4.72-24.20Z" transform="translate(-2.2182388527896033, 28.998431548285904)"></path>
                </g>
            </g>
            <g transform="translate(35, 2.262692258656145)">
                <g data-gra="path-name" fill="#333" transform="scale(1)">
                    <path d="M14.16-21.98L14.16-21.98Q17.14-21.98 18.69-20.73Q20.25-19.48 20.83-17.40Q21.42-15.33 21.42-12.79L21.42-12.79L21.42-2.46Q21.42-1.41 20.73-0.71Q20.04 0 19.00 0L19.00 0Q17.95 0 17.26-0.71Q16.58-1.41 16.58-2.46L16.58-2.46L16.58-12.79Q16.58-14.12 16.23-15.18Q15.89-16.25 15.00-16.90Q14.12-17.54 12.46-17.54L12.46-17.54Q10.85-17.54 9.74-16.90Q8.63-16.25 8.05-15.18Q7.46-14.12 7.46-12.79L7.46-12.79L7.46-2.46Q7.46-1.41 6.78-0.71Q6.09 0 5.04 0L5.04 0Q3.99 0 3.31-0.71Q2.62-1.41 2.62-2.46L2.62-2.46L2.62-19.12Q2.62-20.17 3.31-20.87Q3.99-21.58 5.04-21.58L5.04-21.58Q6.09-21.58 6.78-20.87Q7.46-20.17 7.46-19.12L7.46-19.12L7.46-17.38L6.86-17.50Q7.22-18.19 7.90-18.98Q8.59-19.76 9.52-20.45Q10.45-21.13 11.62-21.56Q12.79-21.98 14.16-21.98Z" transform="translate(-2.6215550078422583, 28.998431548285904)"></path>
                </g>
            </g>
            <g transform="translate(57, 2.262692258656145)">
                <g data-gra="path-name" fill="#333" transform="scale(1)">
                    <path d="M12.58 0.40L12.58 0.40Q9.16 0.40 6.63-1.03Q4.11-2.46 2.76-4.92Q1.41-7.38 1.41-10.49L1.41-10.49Q1.41-14.12 2.88-16.68Q4.36-19.24 6.74-20.61Q9.11-21.98 11.78-21.98L11.78-21.98Q13.83-21.98 15.67-21.13Q17.50-20.29 18.92-18.81Q20.33-17.34 21.15-15.41Q21.98-13.47 21.98-11.29L21.98-11.29Q21.94-10.32 21.21-9.72Q20.49-9.11 19.52-9.11L19.52-9.11L4.11-9.11L2.90-13.15L17.71-13.15L16.82-12.34L16.82-13.43Q16.74-14.60 15.99-15.53Q15.25-16.46 14.14-17.00Q13.03-17.54 11.78-17.54L11.78-17.54Q10.57-17.54 9.52-17.22Q8.47-16.90 7.70-16.13Q6.94-15.37 6.49-14.08Q6.05-12.79 6.05-10.81L6.05-10.81Q6.05-8.63 6.96-7.12Q7.86-5.61 9.30-4.82Q10.73-4.03 12.34-4.03L12.34-4.03Q13.83-4.03 14.72-4.28Q15.61-4.52 16.15-4.86Q16.70-5.20 17.14-5.44L17.14-5.44Q17.87-5.81 18.51-5.81L18.51-5.81Q19.40-5.81 19.98-5.20Q20.57-4.60 20.57-3.79L20.57-3.79Q20.57-2.70 19.44-1.81L19.44-1.81Q18.39-0.93 16.50-0.26Q14.60 0.40 12.58 0.40Z" transform="translate(-1.4116065426842932, 28.998431548285904)"></path>
                </g>
            </g>
            <g transform="translate(81, 2.262692258656145)">
                <g data-gra="path-name" fill="#333" transform="scale(1)">
                    <path d="M13.95-21.98L13.95-21.98Q17.18-21.98 18.71-20.43Q20.25-18.88 20.73-16.41L20.73-16.41L20.04-16.78L20.37-17.42Q20.85-18.35 21.86-19.42Q22.87-20.49 24.30-21.23Q25.73-21.98 27.51-21.98L27.51-21.98Q30.41-21.98 31.92-20.73Q33.43-19.48 34.00-17.40Q34.56-15.33 34.56-12.79L34.56-12.79L34.56-2.46Q34.56-1.41 33.88-0.71Q33.19 0 32.14 0L32.14 0Q31.10 0 30.41-0.71Q29.72-1.41 29.72-2.46L29.72-2.46L29.72-12.79Q29.72-14.12 29.40-15.18Q29.08-16.25 28.23-16.90Q27.39-17.54 25.81-17.54L25.81-17.54Q24.28-17.54 23.19-16.90Q22.10-16.25 21.56-15.18Q21.01-14.12 21.01-12.79L21.01-12.79L21.01-2.46Q21.01-1.41 20.33-0.71Q19.64 0 18.59 0L18.59 0Q17.54 0 16.86-0.71Q16.17-1.41 16.17-2.46L16.17-2.46L16.17-12.79Q16.17-14.12 15.85-15.18Q15.53-16.25 14.68-16.90Q13.83-17.54 12.26-17.54L12.26-17.54Q10.73-17.54 9.64-16.90Q8.55-16.25 8.01-15.18Q7.46-14.12 7.46-12.79L7.46-12.79L7.46-2.46Q7.46-1.41 6.78-0.71Q6.09 0 5.04 0L5.04 0Q3.99 0 3.31-0.71Q2.62-1.41 2.62-2.46L2.62-2.46L2.62-19.12Q2.62-20.17 3.31-20.87Q3.99-21.58 5.04-21.58L5.04-21.58Q6.09-21.58 6.78-20.87Q7.46-20.17 7.46-19.12L7.46-19.12L7.46-17.38L6.86-17.50Q7.22-18.19 7.86-18.98Q8.51-19.76 9.44-20.45Q10.37-21.13 11.49-21.56Q12.62-21.98 13.95-21.98Z" transform="translate(-2.6215550078422583, 28.998431548285904)"></path>
                </g>
            </g>
            <g transform="translate(116, 2.262692258656145)">
                <g data-gra="path-name" fill="#333" transform="scale(1)">
                    <path d="M20.09-21.98L20.09-21.98Q21.13-21.98 21.82-21.30Q22.51-20.61 22.51-19.52L22.51-19.52L22.51-2.46Q22.51-1.41 21.82-0.71Q21.13 0 20.09 0L20.09 0Q19.04 0 18.35-0.71Q17.67-1.41 17.67-2.46L17.67-2.46L17.67-4.44L18.55-4.07Q18.55-3.55 17.99-2.80Q17.42-2.06 16.46-1.33Q15.49-0.60 14.18-0.10Q12.87 0.40 11.33 0.40L11.33 0.40Q8.55 0.40 6.29-1.03Q4.03-2.46 2.72-4.98Q1.41-7.50 1.41-10.77L1.41-10.77Q1.41-14.08 2.72-16.60Q4.03-19.12 6.25-20.55Q8.47-21.98 11.17-21.98L11.17-21.98Q12.91-21.98 14.36-21.46Q15.81-20.93 16.88-20.13Q17.95-19.32 18.53-18.49Q19.12-17.67 19.12-17.10L19.12-17.10L17.67-16.58L17.67-19.52Q17.67-20.57 18.35-21.27Q19.04-21.98 20.09-21.98ZM11.94-4.03L11.94-4.03Q13.71-4.03 15.04-4.92Q16.37-5.81 17.12-7.34Q17.87-8.87 17.87-10.77L17.87-10.77Q17.87-12.70 17.12-14.24Q16.37-15.77 15.04-16.66Q13.71-17.54 11.94-17.54L11.94-17.54Q10.20-17.54 8.87-16.66Q7.54-15.77 6.80-14.24Q6.05-12.70 6.05-10.77L6.05-10.77Q6.05-8.87 6.80-7.34Q7.54-5.81 8.87-4.92Q10.20-4.03 11.94-4.03Z" transform="translate(-1.411606542684293, 28.998431548285904)"></path></g></g><g transform="translate(141, 2.262692258656145)"><g data-gra="path-name" fill="#333" transform="scale(1)"><path d="M2.86-21.17L2.86-21.17L12.42-21.17Q13.39-21.17 14.04-20.53Q14.68-19.88 14.68-18.92L14.68-18.92Q14.68-17.99 14.04-17.36Q13.39-16.74 12.42-16.74L12.42-16.74L2.86-16.74Q1.90-16.74 1.25-17.38Q0.60-18.03 0.60-19.00L0.60-19.00Q0.60-19.92 1.25-20.55Q1.90-21.17 2.86-21.17ZM7.18-26.22L7.18-26.22Q8.23-26.22 8.89-25.51Q9.56-24.80 9.56-23.76L9.56-23.76L9.56-5.81Q9.56-5.24 9.78-4.88Q10.00-4.52 10.39-4.36Q10.77-4.19 11.21-4.19L11.21-4.19Q11.70-4.19 12.10-4.38Q12.50-4.56 13.03-4.56L13.03-4.56Q13.59-4.56 14.06-4.03Q14.52-3.51 14.52-2.58L14.52-2.58Q14.52-1.45 13.29-0.73Q12.06 0 10.65 0L10.65 0Q9.80 0 8.77-0.14Q7.74-0.28 6.84-0.83Q5.93-1.37 5.32-2.50Q4.72-3.63 4.72-5.61L4.72-5.61L4.72-23.76Q4.72-24.80 5.42-25.51Q6.13-26.22 7.18-26.22Z" transform="translate(-0.6049742325789826, 28.998431548285904)"></path>
                </g>
            </g>
            <g transform="translate(159, 2.262692258656145)">
                <g data-gra="path-name" fill="#333" transform="scale(1)">
                    <path d="M12.58 0.40L12.58 0.40Q9.16 0.40 6.63-1.03Q4.11-2.46 2.76-4.92Q1.41-7.38 1.41-10.49L1.41-10.49Q1.41-14.12 2.88-16.68Q4.36-19.24 6.74-20.61Q9.11-21.98 11.78-21.98L11.78-21.98Q13.83-21.98 15.67-21.13Q17.50-20.29 18.92-18.81Q20.33-17.34 21.15-15.41Q21.98-13.47 21.98-11.29L21.98-11.29Q21.94-10.32 21.21-9.72Q20.49-9.11 19.52-9.11L19.52-9.11L4.11-9.11L2.90-13.15L17.71-13.15L16.82-12.34L16.82-13.43Q16.74-14.60 15.99-15.53Q15.25-16.46 14.14-17.00Q13.03-17.54 11.78-17.54L11.78-17.54Q10.57-17.54 9.52-17.22Q8.47-16.90 7.70-16.13Q6.94-15.37 6.49-14.08Q6.05-12.79 6.05-10.81L6.05-10.81Q6.05-8.63 6.96-7.12Q7.86-5.61 9.30-4.82Q10.73-4.03 12.34-4.03L12.34-4.03Q13.83-4.03 14.72-4.28Q15.61-4.52 16.15-4.86Q16.70-5.20 17.14-5.44L17.14-5.44Q17.87-5.81 18.51-5.81L18.51-5.81Q19.40-5.81 19.98-5.20Q20.57-4.60 20.57-3.79L20.57-3.79Q20.57-2.70 19.44-1.81L19.44-1.81Q18.39-0.93 16.50-0.26Q14.60 0.40 12.58 0.40Z" transform="translate(-1.4116065426842932, 28.998431548285904)"></path>
                </g>
            </g>
        </g>
    </g>
    <defs v-gra="od"></defs>
</svg>
